<svg version="1.2" xmlns="http://www.w3.org/2000/svg" viewBox="0 0 56 56" width="16" height="16">
	<title>favicon-svg</title>
	<style>
		.s0 { fill: #fcc62d } 
		.s1 { fill: #e4af18 } 
		.s2 { fill: #ce9912 } 
		.s3 { fill: #ffd949 } 
	</style>
	<g id="XMLID_92_">
		<path id="XMLID_91_" class="s0" d="m31 56c-13.5 0-24.5-12.5-24.5-28 0-15.5 11-28 24.5-28 13.5 0 24.5 12.5 24.5 28 0 15.5-11 28-24.5 28z"/>
		<path id="XMLID_136_" class="s1" d="m6.5 28c0-14.3 9.4-26.1 21.5-27.8q-1.5-0.2-3-0.2c-13.5 0-24.5 12.5-24.5 28 0 15.5 11 28 24.5 28q1.5 0 3-0.2c-12.1-1.7-21.5-13.5-21.5-27.8z"/>
		<path id="XMLID_135_" class="s2" d="m6.5 29h-6q0 1 0.1 2h6q-0.1-1-0.1-2z"/>
		<path id="XMLID_134_" class="s2" d="m6.7 24h-6q-0.1 1-0.2 2h6q0.1-1 0.2-2z"/>
		<path id="XMLID_133_" class="s2" d="m7 34h-6q0.2 1 0.5 2h6q-0.3-1-0.5-2z"/>
		<path id="XMLID_132_" class="s2" d="m8.4 39h-6q0.4 1 0.9 2h6q-0.5-1-0.9-2z"/>
		<path id="XMLID_131_" class="s2" d="m7.8 19h-6q-0.3 1-0.5 2h6q0.2-1 0.5-2z"/>
		<path id="XMLID_130_" class="s2" d="m9.8 14h-6q-0.5 1-1 2h6q0.5-1 1-2z"/>
		<path id="XMLID_129_" class="s2" d="m13.8 8h-6q-0.8 1-1.6 2h6q0.8-1 1.6-2z"/>
		<path id="XMLID_128_" class="s2" d="m20 3h-6.1q-1.5 0.9-2.9 2h6q1.4-1.1 3-2z"/>
		<path id="XMLID_127_" class="s2" d="m11.5 45h-6q0.7 1 1.5 2h6q-0.8-1-1.5-2z"/>
		<path id="XMLID_126_" class="s2" d="m9.8 50q1.2 1.1 2.6 2h6q-1.4-0.9-2.6-2z"/>
		<path id="XMLID_109_" class="s3" d="m31.1 50.5h-0.1q-1.1 0-2.1-0.1c-0.5-0.1-0.9-0.6-0.9-1.1 0.1-0.6 0.6-0.9 1.1-0.9q1 0.1 1.9 0.1c0.6 0 1 0.5 1 1 0 0.6-0.4 1-0.9 1zm5.8-1.1c-0.4 0-0.8-0.2-0.9-0.6-0.2-0.5 0-1.1 0.5-1.3q0.9-0.3 1.8-0.7c0.4-0.3 1-0.1 1.3 0.4 0.3 0.5 0.1 1.1-0.4 1.3q-1 0.5-1.9 0.9-0.2 0-0.4 0zm-13.5-0.7q-0.3 0-0.5-0.1-0.9-0.5-1.8-1.1c-0.5-0.3-0.6-0.9-0.3-1.4 0.3-0.4 0.9-0.5 1.4-0.2q0.8 0.5 1.6 0.9c0.5 0.2 0.7 0.8 0.5 1.3-0.2 0.4-0.6 0.6-0.9 0.6zm20.1-3.6q-0.4 0-0.7-0.3c-0.4-0.4-0.4-1 0-1.4q0.6-0.6 1.2-1.4c0.4-0.4 1-0.5 1.4-0.1 0.5 0.3 0.5 1 0.2 1.4q-0.7 0.8-1.4 1.5-0.3 0.3-0.7 0.3zm-26.2-1.4c-0.3 0-0.6-0.1-0.8-0.3q-0.7-0.8-1.3-1.7c-0.3-0.5-0.1-1.1 0.3-1.4 0.5-0.3 1.1-0.2 1.4 0.3q0.5 0.8 1.1 1.5c0.4 0.4 0.3 1-0.1 1.4q-0.3 0.2-0.6 0.2zm30.6-5.1q-0.2 0-0.4-0.1c-0.5-0.2-0.8-0.8-0.5-1.3q0.3-0.9 0.6-1.8c0.2-0.5 0.8-0.8 1.3-0.6 0.5 0.2 0.8 0.7 0.6 1.2q-0.3 1-0.7 2c-0.2 0.4-0.5 0.6-0.9 0.6zm-34.5-1.8c-0.4 0-0.8-0.2-0.9-0.7q-0.3-0.9-0.6-1.9c-0.1-0.6 0.2-1.1 0.7-1.3 0.6-0.1 1.1 0.2 1.3 0.8q0.2 0.9 0.5 1.8c0.2 0.5-0.1 1.1-0.6 1.3q-0.2 0-0.4 0zm36.4-5.9q-0.1 0-0.1 0c-0.6 0-1-0.5-0.9-1.1q0-0.9 0-1.8c0-0.6 0.5-1 1-1 0.6 0 1 0.4 1 0.9v0.1q0 1 0 2c-0.1 0.5-0.5 0.9-1 0.9zm-37.6-1.9c-0.6 0-1-0.4-1-1q0-1 0-2c0.1-0.6 0.6-1 1.1-1 0.6 0.1 1 0.6 0.9 1.1q0 1 0 1.9c0 0.6-0.5 1-1 1zm36.9-6c-0.4 0-0.9-0.3-1-0.7q-0.2-0.9-0.5-1.8c-0.2-0.6 0.1-1.1 0.6-1.3 0.5-0.2 1.1 0.1 1.3 0.6q0.3 1 0.6 2c0.1 0.5-0.2 1.1-0.8 1.2q-0.1 0-0.2 0zm-35.7-1.8q-0.1 0-0.3 0c-0.5-0.2-0.8-0.8-0.6-1.3q0.3-1 0.7-1.9c0.3-0.5 0.8-0.8 1.3-0.5 0.6 0.2 0.8 0.8 0.6 1.3q-0.4 0.8-0.7 1.8c-0.2 0.4-0.6 0.6-1 0.6zm32.5-5.4c-0.3 0-0.6-0.1-0.8-0.4q-0.6-0.8-1.2-1.5c-0.3-0.4-0.2-1.1 0.2-1.4 0.4-0.4 1-0.3 1.4 0.1q0.6 0.8 1.2 1.7c0.3 0.4 0.2 1.1-0.2 1.4q-0.3 0.1-0.6 0.1zm-28.7-1.5q-0.3 0-0.6-0.2c-0.4-0.4-0.5-1-0.1-1.4q0.6-0.8 1.3-1.6c0.4-0.4 1.1-0.4 1.5 0 0.4 0.4 0.4 1.1 0 1.4q-0.7 0.7-1.3 1.4c-0.2 0.3-0.5 0.4-0.8 0.4zm23.1-4q-0.3 0-0.5-0.2-0.8-0.5-1.7-0.9c-0.4-0.3-0.6-0.9-0.4-1.4 0.3-0.4 0.9-0.6 1.3-0.4q1 0.5 1.9 1c0.4 0.4 0.6 1 0.3 1.4-0.2 0.3-0.6 0.5-0.9 0.5zm-17-1c-0.3 0-0.7-0.2-0.9-0.5-0.2-0.5 0-1.1 0.5-1.4q0.9-0.4 1.9-0.8c0.5-0.2 1.1 0.1 1.3 0.6 0.2 0.5-0.1 1.1-0.6 1.3q-0.9 0.3-1.7 0.7-0.2 0.1-0.5 0.1zm9.6-1.7q0 0-0.1 0-0.9-0.1-1.8-0.1c-0.6 0-1-0.5-1-1 0-0.6 0.4-1 1-1q1 0 2 0.1c0.6 0.1 1 0.6 0.9 1.1 0 0.5-0.5 0.9-1 0.9z"/>
		<path id="XMLID_105_" fill-rule="evenodd" class="s2" d="m42.5 32.6q0 2.9-1.8 4.7-1.8 1.8-5 1.8h-11.5c-0.6 0-1-0.3-1-1 0-0.6 0.4-0.9 1-0.9h2.4v-3.7h-3c-0.6 0-1-0.5-1-1 0-0.6 0.4-1 1-1h3v-14.6l-2.4 0.1c-0.6 0-1-0.4-1-1 0-0.7 0.4-1 1-1h10.1q2.9 0 4.7 1.8 1.8 1.8 1.8 4.5 0 3.1-2.3 4.8 4 1.4 4 6.5zm-13.9-15.6v8.6h5.9q1.9 0 3.1-1.3 1.2-1.3 1.2-3.1 0-1.9-1.2-3.1-1.2-1.2-3.2-1.1h-5.8c-0.1 0 0 0 0 0zm11.9 15.4c0-1.6-0.4-2.7-1.3-3.6-0.8-0.8-2-1.2-3.5-1.2h-7.1c-0.1 0 0 0 0 0v3.9h4c0.5 0 1 0.4 1 1 0 0.5-0.5 1-1 1h-4v3.7h7.1c1.5 0 2.7-0.5 3.5-1.3 0.9-0.9 1.3-2 1.3-3.5z"/>
	</g>
</svg>